<svg width="40" height="35" viewBox="0 0 40 35" fill="none" xmlns="http://www.w3.org/2000/svg">
<path d="M32.1131 18.2285C34.195 19.4913 35.4475 21.0827 35.4475 22.8173C35.4475 26.908 28.5312 30.2248 20 30.2248C11.4688 30.2248 4.55312 26.908 4.55312 22.8173C4.55312 21.0827 5.805 19.4912 7.88688 18.2296C3.83188 19.8604 1.25 22.2918 1.25 25.012C1.25 29.9245 9.64437 33.9063 20 33.9063C30.3556 33.9063 38.75 29.9245 38.75 25.012C38.75 22.2918 36.1681 19.8604 32.1131 18.2285Z" fill="white"/>
<path d="M12.6981 1.09375C12.6981 1.09375 11.565 4.41328 11.565 8.38469C11.565 11.6402 14.4288 13.2683 14.4288 15.9862C14.4288 21.373 10.4663 24.873 10.4663 24.873C10.4663 24.873 11.9169 22.0894 11.9169 17.3534C11.9169 15.7084 9.23877 12.0307 9.23877 9.68625C9.23877 4.54398 12.6981 1.09375 12.6981 1.09375ZM20.865 1.09375C20.865 1.09375 19.73 4.41328 19.73 8.38469C19.73 11.6402 22.5956 13.2683 22.5956 15.9862C22.5956 21.373 18.6331 24.873 18.6331 24.873C18.6331 24.873 20.0838 22.0894 20.0838 17.3534C20.0838 15.7084 17.4056 12.0307 17.4056 9.68625C17.4056 4.54398 20.865 1.09375 20.865 1.09375ZM29.0313 1.09375C29.0313 1.09375 27.8963 4.41328 27.8963 8.38469C27.8963 11.6402 30.7619 13.2683 30.7619 15.9862C30.7619 21.373 26.7994 24.873 26.7994 24.873C26.7994 24.873 28.25 22.0894 28.25 17.3534C28.25 15.7084 25.5719 12.0307 25.5719 9.68625C25.5719 4.54398 29.0313 1.09375 29.0313 1.09375Z" fill="white"/>
</svg>
